name analog
datacolumns 19
datarows 23
range 0.35100000000000003 0.362
endheader
time	ground_force_vx	ground_force_vy	ground_force_vz	ground_force_px	ground_force_py	ground_force_pz	l_ground_force_vx	l_ground_force_vy	l_ground_force_vz	l_ground_force_px	l_ground_force_py	l_ground_force_pz	ground_torque_x	ground_torque_y	ground_torque_z	l_ground_torque_x	l_ground_torque_y	l_ground_torque_z
0.35100000000000003	-0.0	-0.0	-0.0	-0.0	-0.0	-0.0	0.0818788856267929	1.868359327316284	-816.0748291015625	-0.0	-0.0	-0.0	-0.0	-0.0	-0.0	229424.5625	-5793.36865234375	-1886.543212890625
0.35150000000000003	-0.0	-0.0	-0.0	-0.0	-0.0	-0.0	1.1664966344833374	2.038228273391724	-818.3303833007812	-0.0	-0.0	-0.0	-0.0	-0.0	-0.0	230132.75	-6524.7958984375	-1776.2012939453125
0.352	-0.0	-0.0	-0.0	-0.0	-0.0	-0.0	1.664813995361328	2.431806802749634	-819.9942626953125	-0.0	-0.0	-0.0	-0.0	-0.0	-0.0	230909.453125	-7253.00830078125	-1383.500732421875
0.3525	-0.0	-0.0	-0.0	-0.0	-0.0	-0.0	2.040348052978516	1.759529709815979	-821.20458984375	-0.0	-0.0	-0.0	-0.0	-0.0	-0.0	231851.046875	-7974.48291015625	-1330.6650390625
0.353	-0.0	-0.0	-0.0	-0.0	-0.0	-0.0	1.855964422225952	1.8200976848602293	-823.88818359375	-0.0	-0.0	-0.0	-0.0	-0.0	-0.0	232443.6875	-8342.0703125	-1422.091552734375
0.3535	-0.0	-0.0	-0.0	-0.0	-0.0	-0.0	1.6715058088302612	1.4270846843719482	-824.6410522460938	-0.0	-0.0	-0.0	-0.0	-0.0	-0.0	232578.6875	-8924.5478515625	-1417.641357421875
0.354	-0.0	-0.0	-0.0	-0.0	-0.0	-0.0	1.2489880323410034	1.041600227355957	-824.4577026367188	-0.0	-0.0	-0.0	-0.0	-0.0	-0.0	232843.109375	-9427.056640625	-1308.7711181640625
0.3545	-0.0	-0.0	-0.0	-0.0	-0.0	-0.0	0.9153696894645692	0.9574695825576782	-823.3551635742188	-0.0	-0.0	-0.0	-0.0	-0.0	-0.0	232350.40625	-9969.2978515625	-1373.10205078125
0.355	-0.0	-0.0	-0.0	-0.0	-0.0	-0.0	-0.5925668478012085	0.4416084289550781	-820.562255859375	-0.0	-0.0	-0.0	-0.0	-0.0	-0.0	231817.265625	-10353.5166015625	-1579.6280517578125
0.3555	-0.0	-0.0	-0.0	-0.0	-0.0	-0.0	-1.9975101947784424	-0.6253601312637329	-819.4307861328125	-0.0	-0.0	-0.0	-0.0	-0.0	-0.0	231484.65625	-10484.9814453125	-1870.4140625
0.356	-0.0	-0.0	-0.0	-0.0	-0.0	-0.0	-2.6397922039031982	-1.0812971591949463	-818.6192626953125	-0.0	-0.0	-0.0	-0.0	-0.0	-0.0	230870.515625	-10767.486328125	-2063.37060546875
0.3565	-0.0	-0.0	-0.0	-0.0	-0.0	-0.0	-3.800154209136963	-0.8164147138595581	-818.3829956054688	-0.0	-0.0	-0.0	-0.0	-0.0	-0.0	231230.4375	-11220.0537109375	-2148.35791015625
0.357	-0.0	-0.0	-0.0	-0.0	-0.0	-0.0	-3.867063283920288	-0.1766433715820312	-818.3258666992188	-0.0	-0.0	-0.0	-0.0	-0.0	-0.0	231321.71875	-11421.9814453125	-2175.53515625
0.3575	-0.0	-0.0	-0.0	-0.0	-0.0	-0.0	-3.778165102005005	1.333420991897583	-816.7802734375	-0.0	-0.0	-0.0	-0.0	-0.0	-0.0	231693.8125	-12154.67578125	-2328.767578125
0.358	-0.0	-0.0	-0.0	-0.0	-0.0	-0.0	-2.875265121459961	1.8474833965301516	-820.1858520507812	-0.0	-0.0	-0.0	-0.0	-0.0	-0.0	232449.125	-12773.197265625	-2075.6162109375
0.3585	-0.0	-0.0	-0.0	-0.0	-0.0	-0.0	-2.735351324081421	2.5540196895599365	-822.39892578125	-0.0	-0.0	-0.0	-0.0	-0.0	-0.0	233313.9375	-13351.2626953125	-1756.3848876953125
0.359	-0.0	-0.0	-0.0	-0.0	-0.0	-0.0	-1.8850634098052976	2.6496505737304688	-821.8157958984375	-0.0	-0.0	-0.0	-0.0	-0.0	-0.0	233676.546875	-13721.1298828125	-1634.6573486328125
0.3595	-0.0	-0.0	-0.0	-0.0	-0.0	-0.0	-1.3306617736816406	2.8777451515197754	-824.0560913085938	-0.0	-0.0	-0.0	-0.0	-0.0	-0.0	234529.296875	-14334.5830078125	-1379.6214599609375
0.36	-0.0	-0.0	-0.0	-0.0	-0.0	-0.0	-1.0868616104125977	3.1721692085266118	-828.739501953125	-0.0	-0.0	-0.0	-0.0	-0.0	-0.0	235456.734375	-15153.775390625	-1114.9613037109375
0.3605	-0.0	-0.0	-0.0	-0.0	-0.0	-0.0	-0.2212429046630859	3.14978551864624	-830.31201171875	-0.0	-0.0	-0.0	-0.0	-0.0	-0.0	236675.03125	-15871.587890625	-963.6171875
0.361	-0.0	-0.0	-0.0	-0.0	-0.0	-0.0	0.1849307417869568	3.606236696243286	-833.8035888671875	-0.0	-0.0	-0.0	-0.0	-0.0	-0.0	238082.234375	-16584.83984375	-743.0645141601562
0.3615	-0.0	-0.0	-0.0	-0.0	-0.0	-0.0	1.315568447113037	4.401057243347168	-838.8034057617188	-0.0	-0.0	-0.0	-0.0	-0.0	-0.0	239109.140625	-17238.88671875	-559.0397338867188
0.362	-0.0	-0.0	-0.0	-0.0	-0.0	-0.0	2.098722219467163	4.968667030334473	-841.4761962890625	-0.0	-0.0	-0.0	-0.0	-0.0	-0.0	240471.546875	-18212.236328125	-382.87786865234375
